<?xml version="1.0" encoding="UTF-8"?>
<svg id="Layer_1" data-name="Layer 1" xmlns="http://www.w3.org/2000/svg" viewBox="0 0 316.4 767.5">
  <defs>
    <style>
      .cls-1 {
        fill: #010101;
      }
    </style>
  </defs>
  <path class="cls-1" d="M316.4,312.56v454.87s-168.99,3.39-219.82-38.4C45.76,687.24,1.15,644.89.02,550.02c-1.13-94.87,55.34-166.27,55.34-166.27l51.39-76.56s23.15-31.05,2.26-90.91c-20.9-59.86-24.85-77.37-24.85-77.37,0,0-2.78-69.46,33.06-96C153.05,16.37,188.06,6.77,203.88,4.51c15.81-2.26,68.89-4.51,68.89-4.51l-1.32,174.75c-18.97,13.86-31.29,36.28-31.29,61.57,0,42.11,34.14,76.24,76.24,76.24Z"/>
</svg>